<?xml version="1.0" encoding="UTF-8"?>
<svg version="1.1" xmlns="http://www.w3.org/2000/svg" width="512" height="512">
<path d="M0 0 C6.55201508 5.77270051 6.55201508 5.77270051 8.66796875 9.44140625 C12.66179241 13.18481331 17.14012545 12.56087541 22.41015625 12.53125 C23.9405957 12.59795898 23.9405957 12.59795898 25.50195312 12.66601562 C31.2976128 12.69347493 31.2976128 12.69347493 36.25854492 10.0078125 C38.01709054 7.98710749 39.54329479 5.89777816 41.09765625 3.71875 C51.39168891 -6.91045563 64.98596395 -12.18068044 79.64257812 -12.6328125 C99.3000116 -12.83054025 118.90504696 -6.46887097 135.09765625 4.71875 C137.58259854 7.43387642 138.05525464 8.42723891 138.59765625 12.15625 C138.09765625 15.71875 138.09765625 15.71875 136.03515625 18.65625 C132.28506442 21.2892932 130.62792415 21.18291679 126.09765625 20.71875 C123.29459151 19.58219737 120.7579586 18.07221636 118.16015625 16.53125 C103.99337453 8.61872044 88.23203879 3.30890599 71.87109375 6.859375 C64.26248163 9.21697312 57.80856625 12.15911409 53.09765625 18.71875 C53.79890625 19.2034375 54.50015625 19.688125 55.22265625 20.1875 C67.17562064 28.63252919 76.64703207 37.54955901 79.91015625 52.421875 C81.47227925 56.75882176 83.13336111 57.40817755 87.22265625 59.40625 C95.1942148 63.54875293 102.10572131 68.73726851 109.18554688 74.23583984 C110.98687364 75.63283407 112.79759378 77.01627813 114.61328125 78.39453125 C124.40814122 85.84343704 133.88233655 93.65805761 143.25512695 101.62817383 C146.72987533 104.57843188 150.2421447 107.47535983 153.78515625 110.34375 C158.18423458 113.92158215 162.39316003 117.6643352 166.58203125 121.484375 C169.1109592 123.73056566 171.70815539 125.85406218 174.34765625 127.96875 C180.11143918 132.62882982 185.48529247 137.65449521 190.88671875 142.72265625 C193.2712511 144.95789733 195.68527685 147.1457528 198.16015625 149.28125 C202.25661234 152.81630739 206.21188664 156.49850507 210.17993164 160.17602539 C213.46303213 163.21645987 216.7645055 166.23302864 220.09765625 169.21875 C225.63072245 174.18593443 231.12524747 179.19203503 236.55322266 184.27392578 C237.96295414 185.5927356 239.37956048 186.90418676 240.796875 188.21484375 C256.39177859 203.12425708 266.79675262 222.25413998 273.09765625 242.71875 C273.41476562 243.72808594 273.731875 244.73742187 274.05859375 245.77734375 C277.20581794 256.51218271 278.30290871 267.12965365 278.47265625 278.28125 C278.4986792 279.24587158 278.52470215 280.21049316 278.55151367 281.2043457 C278.56888433 287.99627471 278.56888433 287.99627471 276.44921875 291.24609375 C263.90146043 299.10407529 244.74264633 294.46890142 231.20068359 291.45507812 C213.36849948 287.22361728 196.02957857 281.71662541 179.09765625 274.71875 C178.2149707 274.3563623 177.33228516 273.99397461 176.42285156 273.62060547 C160.3984504 267.00457896 144.93302631 259.70988337 130.09765625 250.71875 C130.02289063 251.95625 129.948125 253.19375 129.87109375 254.46875 C128.38034973 275.35346109 123.7321345 295.0631047 114.09765625 313.71875 C113.77007324 314.35490234 113.44249023 314.99105469 113.10498047 315.64648438 C100.06133651 340.5249443 79.06581658 362.17655092 52.00537109 371.43457031 C47.74802878 372.73362344 43.44933209 373.78056897 39.09765625 374.71875 C38.3102002 374.8938208 37.52274414 375.0688916 36.71142578 375.24926758 C18.72655007 378.47969126 0.60421545 374.85095022 -15.90234375 367.71875 C-16.76472656 367.35007812 -17.62710938 366.98140625 -18.515625 366.6015625 C-45.9770363 353.9001123 -65.02382356 327.11909561 -75.90234375 299.71875 C-81.72101822 283.76744486 -84.48782458 267.57786746 -85.90234375 250.71875 C-86.6759021 251.18547119 -86.6759021 251.18547119 -87.46508789 251.66162109 C-101.17657988 259.87074241 -115.08783209 266.73824878 -129.90234375 272.71875 C-130.77858398 273.07420898 -131.65482422 273.42966797 -132.55761719 273.79589844 C-200.13403573 300.96422073 -200.13403573 300.96422073 -227.0390625 293.89453125 C-232.49644704 291.53054342 -232.49644704 291.53054342 -233.90234375 288.71875 C-236.56546819 256.0470552 -225.8859679 223.80783052 -205.71484375 198.15625 C-197.95352207 189.0277204 -189.27760253 180.38316805 -180.12109375 172.65234375 C-176.80197856 169.75980498 -173.61165024 166.73207723 -170.40234375 163.71875 C-165.96843464 159.56071178 -161.52110455 155.44269056 -156.91015625 151.48046875 C-154.78574785 149.61644503 -152.71190276 147.70191615 -150.63964844 145.78027344 C-146.34981125 141.80399712 -142.02822671 137.94659112 -137.46484375 134.28125 C-133.27994034 130.91526294 -129.31946365 127.38673463 -125.40234375 123.71875 C-120.6725226 119.29459284 -115.82218746 115.11145785 -110.76953125 111.0546875 C-107.48656009 108.38000527 -104.28967787 105.61670438 -101.08984375 102.84375 C-95.34538382 97.88405235 -89.45669176 93.15106003 -83.4609375 88.5 C-81.03191245 86.61306633 -78.63215753 84.6957559 -76.25 82.75 C-69.91584238 77.58259504 -63.51052917 72.60881757 -56.77734375 67.96875 C-56.11460449 67.50968262 -55.45186523 67.05061523 -54.76904297 66.57763672 C-51.63584218 64.44385218 -48.50947272 62.45985652 -45.14453125 60.7109375 C-38.64213479 57.39477905 -38.64213479 57.39477905 -34.45703125 51.6875 C-33.8376205 49.45970337 -33.27214772 47.21620018 -32.76171875 44.9609375 C-30.1062904 34.94273053 -21.11674736 26.82114099 -12.70703125 21.26953125 C-11.1364036 20.36339991 -9.52418103 19.52966864 -7.90234375 18.71875 C-17.86524266 9.69528076 -26.26503424 5.62555654 -39.90234375 5.71875 C-52.92196572 7.08220117 -65.29985048 10.96410549 -76.33984375 18.09375 C-80.85996245 20.95172855 -83.59685019 21.63349027 -88.90234375 20.71875 C-92.19526219 18.60790485 -92.79010327 17.07527858 -93.96484375 13.34375 C-93.89665884 9.38902528 -93.12607954 8.1367235 -90.55444336 5.24414062 C-87.4648444 2.39150071 -83.87807799 0.55562179 -80.15234375 -1.34375 C-78.90565918 -1.98944946 -78.90565918 -1.98944946 -77.63378906 -2.64819336 C-53.01022482 -14.97631649 -22.68803132 -17.83285369 0 0 Z " fill="#FEEAD1" transform="translate(233.90234375,74.28125)"/>
<path d="M0 0 C4.20867142 0.30805 8.41686412 0.62222521 12.625 0.9375 C13.81480469 1.02451172 15.00460938 1.11152344 16.23046875 1.20117188 C17.96103516 1.33168945 17.96103516 1.33168945 19.7265625 1.46484375 C20.78439941 1.543396 21.84223633 1.62194824 22.93212891 1.70288086 C26 2 26 2 28.7721405 2.50949097 C32.13589758 3.02065114 35.31217219 3.13403943 38.71362305 3.14526367 C40.69310188 3.15483345 40.69310188 3.15483345 42.71257019 3.16459656 C44.14561933 3.16612726 45.57866897 3.16724013 47.01171875 3.16796875 C48.50462372 3.17118944 49.99752839 3.17455409 51.49043274 3.17805481 C54.6232679 3.18403526 57.75607555 3.18589625 60.88891602 3.18530273 C64.06475589 3.18522201 67.24044987 3.19207634 70.41625977 3.20581055 C96.5106977 3.96880267 96.5106977 3.96880267 122.20581055 0.43823242 C124.27525505 -0.0672313 126.12324802 -0.09794587 128.25 -0.0625 C130.10625 -0.0315625 130.10625 -0.0315625 132 0 C132.16491943 0.54712646 132.32983887 1.09425293 132.49975586 1.65795898 C139.90048262 25.85623833 149.95189021 47.57387852 171.8203125 61.83984375 C174 64 174 64 174.41015625 66.96875 C174.29542969 68.1340625 174.18070313 69.299375 174.0625 70.5 C173.9682373 71.46981812 173.9682373 71.46981812 173.87207031 72.45922852 C170.98080752 98.83734814 162.83985078 124.496003 147 146 C146.47277344 146.74894531 145.94554687 147.49789062 145.40234375 148.26953125 C130.07484194 169.17067008 108.28087447 183.54967749 83 189 C82.21254395 189.1750708 81.42508789 189.3501416 80.61376953 189.53051758 C62.62889382 192.76094126 44.5065592 189.13220022 28 182 C27.13761719 181.63132812 26.27523437 181.26265625 25.38671875 180.8828125 C-2.07469255 168.1813623 -21.12147981 141.40034561 -32 114 C-36.50354008 101.65400221 -39.44388358 89.03679757 -41 76 C-41.17402344 74.76894531 -41.34804687 73.53789062 -41.52734375 72.26953125 C-41.81314087 68.86737101 -41.89044538 66.29743054 -41 63 C-38.09498861 59.57230664 -34.77748985 57.37678558 -31 55 C-13.67406632 42.29253555 -5.93347624 19.68453206 0 0 Z " fill="#6D686D" transform="translate(190,260)"/>
<path d="M0 0 C6.75009084 3.19230035 12.99313606 6.74326018 19.125 11 C19.93831787 11.56033936 20.75163574 12.12067871 21.58959961 12.69799805 C29.13909223 17.96934143 36.261316 23.69745267 43.31933594 29.60302734 C45.57918415 31.48141948 47.88103971 33.30430546 50.1875 35.125 C54.56895112 38.61692833 58.84205052 42.22757343 63.10742188 45.859375 C66.59790331 48.82772317 70.12556103 51.74224431 73.6875 54.625 C78.08657833 58.20283215 82.29550378 61.9455852 86.484375 65.765625 C89.01330295 68.01181566 91.61049914 70.13531218 94.25 72.25 C100.01378293 76.91007982 105.38763622 81.93574521 110.7890625 87.00390625 C113.17359485 89.23914733 115.5876206 91.4270028 118.0625 93.5625 C122.15895609 97.09755739 126.11423039 100.77975507 130.08227539 104.45727539 C133.36537588 107.49770987 136.66684925 110.51427864 140 113.5 C145.5330662 118.46718443 151.02759122 123.47328503 156.45556641 128.55517578 C157.86529789 129.8739856 159.28190423 131.18543676 160.69921875 132.49609375 C176.29412234 147.40550708 186.69909637 166.53538998 193 187 C193.31710937 188.00933594 193.63421875 189.01867187 193.9609375 190.05859375 C197.10816169 200.79343271 198.20525246 211.41090365 198.375 222.5625 C198.40102295 223.52712158 198.4270459 224.49174316 198.45385742 225.4855957 C198.47122808 232.27752471 198.47122808 232.27752471 196.3515625 235.52734375 C183.80380418 243.38532529 164.64499008 238.75015142 151.10302734 235.73632812 C133.27084323 231.50486728 115.93192232 225.99787541 99 219 C98.11731445 218.6376123 97.23462891 218.27522461 96.32519531 217.90185547 C75.85520334 209.450369 56.04559427 200.40108386 39 186 C37.52273438 184.82244141 37.52273438 184.82244141 36.015625 183.62109375 C21.13919395 170.69093153 13.44638542 151.426089 8 133 C7.48759766 131.37964844 7.48759766 131.37964844 6.96484375 129.7265625 C4.07368616 118.55990525 3.60009231 107.71176009 3.625 96.25 C3.62454681 95.43796112 3.62409363 94.62592224 3.62362671 93.78927612 C3.64868168 78.45054527 5.42241926 63.93669398 8.93359375 48.99609375 C12.73418817 32.72082099 11.88609543 20.41281332 3 6 C2.4534375 5.29359375 1.906875 4.5871875 1.34375 3.859375 C0 2 0 2 0 0 Z " fill="#FEEAD1" transform="translate(314,130)"/>
<path d="M0 0 C6.55201508 5.77270051 6.55201508 5.77270051 8.66796875 9.44140625 C12.66179241 13.18481331 17.14012545 12.56087541 22.41015625 12.53125 C23.9405957 12.59795898 23.9405957 12.59795898 25.50195312 12.66601562 C31.2976128 12.69347493 31.2976128 12.69347493 36.25854492 10.0078125 C38.01709054 7.98710749 39.54329479 5.89777816 41.09765625 3.71875 C51.39168891 -6.91045563 64.98596395 -12.18068044 79.64257812 -12.6328125 C99.3000116 -12.83054025 118.90504696 -6.46887097 135.09765625 4.71875 C137.58259854 7.43387642 138.05525464 8.42723891 138.59765625 12.15625 C138.09765625 15.71875 138.09765625 15.71875 136.03515625 18.65625 C132.28506442 21.2892932 130.62792415 21.18291679 126.09765625 20.71875 C123.29459151 19.58219737 120.7579586 18.07221636 118.16015625 16.53125 C103.99337453 8.61872044 88.23203879 3.30890599 71.87109375 6.859375 C64.26248163 9.21697312 57.80856625 12.15911409 53.09765625 18.71875 C53.79890625 19.2034375 54.50015625 19.688125 55.22265625 20.1875 C67.31548223 28.73134444 77.46130818 38.30012724 80.16015625 53.53125 C80.27617187 54.22347656 80.3921875 54.91570312 80.51171875 55.62890625 C81.69276185 59.84129329 84.54503962 63.22857713 87.09765625 66.71875 C93.83030818 76.8177279 93.30395245 88.91780853 91.08203125 100.39453125 C90.44636021 103.45554711 89.776683 106.5059999 89.08325195 109.55444336 C87.75537943 115.4051358 86.72248963 121.16265103 86.0300293 127.12158203 C84.44787489 140.49009562 84.44787489 140.49009562 79.109375 145.2578125 C78.44550781 145.73992187 77.78164063 146.22203125 77.09765625 146.71875 C76.05544922 147.53472656 76.05544922 147.53472656 74.9921875 148.3671875 C60.3493295 158.99297826 42.12767523 161.08726603 24.54492188 161.03442383 C22.36406903 161.03127371 20.18459182 161.05478414 18.00390625 161.08007812 C-2.97923355 161.17476912 -21.54822519 156.55625038 -37.55078125 142.37109375 C-41.57796285 137.35128588 -41.67480164 130.38537082 -42.52734375 124.21875 C-42.91206101 121.62450794 -43.30007045 119.03075192 -43.69140625 116.4375 C-43.8817041 115.15697754 -44.07200195 113.87645508 -44.26806641 112.55712891 C-44.89579417 108.75838532 -45.6807932 105.02890658 -46.52734375 101.2734375 C-50.2458933 84.45561403 -46.91806544 72.7738266 -37.83984375 58.46875 C-35.96274572 55.25831646 -35.07701417 51.98265131 -34.08984375 48.40625 C-30.45806644 36.16477668 -21.8206108 26.52736561 -10.77734375 20.15625 C-9.82859375 19.681875 -8.87984375 19.2075 -7.90234375 18.71875 C-17.86524266 9.69528076 -26.26503424 5.62555654 -39.90234375 5.71875 C-52.92196572 7.08220117 -65.29985048 10.96410549 -76.33984375 18.09375 C-80.85996245 20.95172855 -83.59685019 21.63349027 -88.90234375 20.71875 C-92.19526219 18.60790485 -92.79010327 17.07527858 -93.96484375 13.34375 C-93.89665884 9.38902528 -93.12607954 8.1367235 -90.55444336 5.24414062 C-87.4648444 2.39150071 -83.87807799 0.55562179 -80.15234375 -1.34375 C-79.3212207 -1.77421631 -78.49009766 -2.20468262 -77.63378906 -2.64819336 C-53.01022482 -14.97631649 -22.68803132 -17.83285369 0 0 Z " fill="#66636B" transform="translate(233.90234375,74.28125)"/>
<path d="M0 0 C4.20867142 0.30805 8.41686412 0.62222521 12.625 0.9375 C13.81480469 1.02451172 15.00460938 1.11152344 16.23046875 1.20117188 C17.96103516 1.33168945 17.96103516 1.33168945 19.7265625 1.46484375 C20.78439941 1.543396 21.84223633 1.62194824 22.93212891 1.70288086 C26 2 26 2 28.7721405 2.50949097 C32.13589758 3.02065114 35.31217219 3.13403943 38.71362305 3.14526367 C40.69310188 3.15483345 40.69310188 3.15483345 42.71257019 3.16459656 C44.14561933 3.16612726 45.57866897 3.16724013 47.01171875 3.16796875 C48.50462372 3.17118944 49.99752839 3.17455409 51.49043274 3.17805481 C54.6232679 3.18403526 57.75607555 3.18589625 60.88891602 3.18530273 C64.06475589 3.18522201 67.24044987 3.19207634 70.41625977 3.20581055 C96.5106977 3.96880267 96.5106977 3.96880267 122.20581055 0.43823242 C124.27525505 -0.0672313 126.12324802 -0.09794587 128.25 -0.0625 C130.10625 -0.0315625 130.10625 -0.0315625 132 0 C132.16491943 0.54712646 132.32983887 1.09425293 132.49975586 1.65795898 C139.79102077 25.49832909 149.83819896 48.09645693 171.8359375 61.76171875 C174 64 174 64 174.26953125 67.671875 C174.14390035 69.03397848 173.99068147 70.39376979 173.8125 71.75 C173.74224609 72.44738281 173.67199219 73.14476562 173.59960938 73.86328125 C173.4234273 75.57812008 173.21486649 77.28957762 173 79 C172.67 78.01 172.34 77.02 172 76 C170.82308594 76.44730469 169.64617187 76.89460938 168.43359375 77.35546875 C140.98442706 87.52684411 111.5963614 92.13822025 82.3515625 92.16796875 C80.59082901 92.17296135 80.59082901 92.17296135 78.79452515 92.17805481 C76.32216784 92.18308655 73.84980383 92.18546431 71.37744141 92.18530273 C67.66947683 92.18747396 63.9618178 92.20562858 60.25390625 92.22460938 C27.48803209 92.30221179 -11.30000252 90.5978404 -41 75 C-41.62325864 70.84494238 -41.83612858 67.13503589 -41 63 C-38.12526551 59.58317273 -34.73312523 57.39791986 -31 55 C-13.67794976 42.26869343 -5.93837652 19.70078892 0 0 Z " fill="#FED650" transform="translate(190,260)"/>
<path d="M0 0 C-0.515625 0.763125 -1.03125 1.52625 -1.5625 2.3125 C-1.92859375 2.87195313 -2.2946875 3.43140625 -2.671875 4.0078125 C-3.61197556 5.41796334 -4.58422511 6.80692479 -5.578125 8.1796875 C-17.94606513 26.06306039 -22.71703829 50.0226928 -27.6875 70.875 C-27.89165527 71.72489502 -28.09581055 72.57479004 -28.30615234 73.45043945 C-29.29853919 77.67478885 -30.17216289 81.88612639 -30.87890625 86.16796875 C-31.02690674 86.99248535 -31.17490723 87.81700195 -31.32739258 88.66650391 C-31.59986351 90.21129288 -31.84051091 91.76219857 -32.04174805 93.31787109 C-32.58208785 96.29199576 -33.25744277 98.46378879 -35.75976562 100.27075195 C-38.13906819 101.39233993 -40.48610925 102.22564447 -43 103 C-43.86334961 103.2683667 -44.72669922 103.5367334 -45.61621094 103.81323242 C-48.39841576 104.62265148 -51.19019863 105.35501481 -54 106.0625 C-55.51339966 106.44656006 -55.51339966 106.44656006 -57.05737305 106.83837891 C-94.89726019 116.2645999 -94.89726019 116.2645999 -108.56640625 109.0703125 C-110 108 -110 108 -111 106 C-113.49749412 75.36028802 -104.21091473 46.1608042 -87 21 C-86.55325928 20.2992334 -86.10651855 19.5984668 -85.64624023 18.87646484 C-83.62063318 16.56757921 -82.36842639 16.22577645 -79.390625 15.578125 C-78.42737305 15.3613208 -77.46412109 15.1445166 -76.47167969 14.92114258 C-75.40852539 14.69966553 -74.34537109 14.47818848 -73.25 14.25 C-71.57405762 13.88201294 -71.57405762 13.88201294 -69.86425781 13.5065918 C-65.91393646 12.64864295 -61.95817068 11.82077579 -58 11 C-57.22108398 10.83783997 -56.44216797 10.67567993 -55.63964844 10.50860596 C-45.64998207 8.42932571 -35.65483531 6.37782643 -25.65216064 4.36203003 C-22.05883563 3.63496415 -18.47131239 2.89124798 -14.89257812 2.09521484 C-13.65443359 1.82016113 -12.41628906 1.54510742 -11.140625 1.26171875 C-10.06844727 1.01768311 -8.99626953 0.77364746 -7.89160156 0.5222168 C-5.18401344 0.03323242 -2.74291404 -0.10221057 0 0 Z " fill="#FFEAD1" transform="translate(111,257)"/>
<path d="M0 0 C4.20867142 0.30805 8.41686412 0.62222521 12.625 0.9375 C13.81480469 1.02451172 15.00460938 1.11152344 16.23046875 1.20117188 C17.96103516 1.33168945 17.96103516 1.33168945 19.7265625 1.46484375 C20.78439941 1.543396 21.84223633 1.62194824 22.93212891 1.70288086 C26 2 26 2 28.7721405 2.50949097 C32.13589758 3.02065114 35.31217219 3.13403943 38.71362305 3.14526367 C40.69310188 3.15483345 40.69310188 3.15483345 42.71257019 3.16459656 C44.14561933 3.16612726 45.57866897 3.16724013 47.01171875 3.16796875 C48.50462372 3.17118944 49.99752839 3.17455409 51.49043274 3.17805481 C54.6232679 3.18403526 57.75607555 3.18589625 60.88891602 3.18530273 C64.06475589 3.18522201 67.24044987 3.19207634 70.41625977 3.20581055 C96.5106977 3.96880267 96.5106977 3.96880267 122.20581055 0.43823242 C124.27525505 -0.0672313 126.12324802 -0.09794587 128.25 -0.0625 C130.10625 -0.0315625 130.10625 -0.0315625 132 0 C132.16491943 0.54712646 132.32983887 1.09425293 132.49975586 1.65795898 C137.16882768 16.92450075 142.9603677 30.79764764 152 44 C142.69830021 47.1431703 133.50314795 49.16615143 123.8125 50.6875 C121.87987305 51.00557617 121.87987305 51.00557617 119.90820312 51.33007812 C108.00212336 53.25668726 96.53091972 54.16408863 84.46484375 54.203125 C83.77706911 54.20595238 83.08929447 54.20877975 82.38067818 54.21169281 C78.72733315 54.22660628 75.07402668 54.23588027 71.4206543 54.24023438 C68.45861242 54.24458262 65.4968678 54.25834212 62.53491211 54.28125 C39.84218018 54.45306671 17.44854922 53.68112154 -4.75 48.4375 C-5.69230469 48.22931641 -6.63460937 48.02113281 -7.60546875 47.80664062 C-11.89297589 46.83663014 -15.9819044 45.83177888 -20 44 C-19.5875 43.40316406 -19.175 42.80632812 -18.75 42.19140625 C-10.03012963 29.0921367 -4.23015993 15.11061936 0 0 Z " fill="#6C676D" transform="translate(190,260)"/>
<path d="M0 0 C2.79192366 1.27467043 4.84081631 2.59153969 7.00512695 4.76220703 C7.56283279 5.31683624 8.12053864 5.87146545 8.69514465 6.44290161 C9.28687973 7.0418222 9.87861481 7.6407428 10.48828125 8.2578125 C11.42041695 9.19063553 11.42041695 9.19063553 12.37138367 10.14230347 C13.68575416 11.45969214 14.99769625 12.77950751 16.30737305 14.1015625 C18.28976904 16.10206146 20.27989518 18.09459513 22.27148438 20.0859375 C27.89713083 25.72778956 33.48282636 31.35410651 38.64526367 37.42919922 C40.64234814 39.74479508 42.81023761 41.86786294 45 44 C48.57293006 47.53520682 51.97057558 51.13655576 55.234375 54.95703125 C57.2129461 57.2463956 59.26252331 59.46191342 61.3125 61.6875 C70.37636043 71.8186068 77.45707194 81.02676099 82 94 C82.34659668 94.98371582 82.34659668 94.98371582 82.70019531 95.98730469 C86.17172177 106.04095929 88.98174952 116.30425268 91.76934814 126.56445312 C92.30003325 128.51663961 92.83623039 130.46732505 93.37255859 132.41796875 C95.20539562 139.28320355 96.62308585 145.8943937 97 153 C74.08195613 145.75770755 51.05361859 135.08137454 33 119 C32.01257813 118.20851563 31.02515625 117.41703125 30.0078125 116.6015625 C15.11924714 103.72392025 7.43673109 84.39342669 2 66 C1.65839844 64.91976562 1.31679688 63.83953125 0.96484375 62.7265625 C-1.7968911 52.05978092 -2.31760866 41.78929426 -2.26074219 30.8359375 C-2.24998755 28.37214733 -2.26071243 25.90908114 -2.2734375 23.4453125 C-2.27954428 15.36665275 -2.01389213 7.87975256 0 0 Z " fill="#FEEAD1" transform="translate(320,197)"/>
<path d="M0 0 C0 3.61759584 -0.98217502 4.95698951 -2.875 8 C-3.40867188 8.86625 -3.94234375 9.7325 -4.4921875 10.625 C-5.63888508 12.43119722 -6.81324441 14.21986661 -8 16 C-9.79029604 20.44108922 -10.09660748 23.35820026 -9.3515625 28.08984375 C-8.26606144 35.874953 -7.31247652 43.66850218 -12.23388672 50.33251953 C-17.3984426 56.56453576 -23.52658521 61.9183422 -29.65588379 67.17591858 C-33.29163757 70.30143606 -36.46688947 73.5870144 -39.53491211 77.26171875 C-41.70799454 79.84001352 -44.08743712 82.1442033 -46.5 84.5 C-49.70159884 87.65352022 -52.81737308 90.84181196 -55.75 94.25 C-56.56791016 95.19166016 -56.56791016 95.19166016 -57.40234375 96.15234375 C-58.48739677 97.40718502 -59.56263129 98.67057015 -60.62890625 99.94140625 C-68.21349038 108.37067725 -80.35389172 109.07043546 -90.984375 111.35546875 C-92.41306202 111.66489316 -93.84171124 111.97449215 -95.27032471 112.28425598 C-98.24489829 112.92817205 -101.22011789 113.56899448 -104.19580078 114.20776367 C-107.99891597 115.02456271 -111.79993576 115.85069702 -115.60049057 116.67931652 C-118.54215781 117.31932169 -121.48503661 117.95360692 -124.42829132 118.58626747 C-125.83046461 118.88853277 -127.23222231 119.19273304 -128.63353729 119.49895287 C-130.59132302 119.92604129 -132.55100223 120.34442154 -134.51074219 120.76245117 C-135.62197449 121.00211105 -136.73320679 121.24177094 -137.87811279 121.48869324 C-140.97936776 121.99662083 -143.86375012 122.09350019 -147 122 C-142.82357366 116.96258731 -138.44326949 112.42149244 -133.625 108 C-132.95944092 107.38406982 -132.29388184 106.76813965 -131.6081543 106.13354492 C-127.79385745 102.6142714 -123.9442062 99.14429082 -120.0078125 95.76171875 C-117.8834041 93.89769503 -115.80955901 91.98316615 -113.73730469 90.06152344 C-109.4474675 86.08524712 -105.12588296 82.22784112 -100.5625 78.5625 C-96.37759659 75.19651294 -92.4171199 71.66798463 -88.5 68 C-83.77017885 63.57584284 -78.91984371 59.39270785 -73.8671875 55.3359375 C-70.58421634 52.66125527 -67.38733412 49.89795438 -64.1875 47.125 C-58.44304007 42.16530235 -52.55434801 37.43231003 -46.55859375 32.78125 C-44.1295687 30.89431633 -41.72981378 28.9770059 -39.34765625 27.03125 C-26.92937254 16.90011464 -14.02672025 7.78376711 0 0 Z " fill="#FEEAD1" transform="translate(197,130)"/>
<path d="M0 0 C4.99672327 0.95863111 9.96963717 1.96512468 14.91015625 3.18359375 C37.54220616 8.75385445 59.92437302 10.54342656 83.1875 10.375 C84.33988159 10.37034729 85.49226318 10.36569458 86.67956543 10.36090088 C111.73565448 10.24264231 135.57173503 8.78210236 159.90234375 2.3046875 C163.93514299 1.23114998 167.85533335 0.47268799 172 0 C164.81262193 20.27867385 142.4471456 36.18005561 124.10668945 45.31811523 C117.30457191 48.5276517 110.34140984 50.41726 103 52 C101.81881592 52.2626062 101.81881592 52.2626062 100.61376953 52.53051758 C82.62889382 55.76094126 64.5065592 52.13220022 48 45 C47.13761719 44.63132812 46.27523437 44.26265625 45.38671875 43.8828125 C26.97502254 35.36703594 8.91148662 18.35638862 0 0 Z " fill="#FED650" transform="translate(170,397)"/>
<path d="M0 0 C2.02530279 3.52226572 2.79452888 7.04058216 3.625 11 C3.88539063 12.216875 4.14578125 13.43375 4.4140625 14.6875 C5 18 5 18 5 22 C3.67407227 23.50219727 3.67407227 23.50219727 1.75390625 25.00390625 C-1.93826082 28.05402798 -5.39783287 31.2703486 -8.78515625 34.65234375 C-9.54860855 35.41389267 -9.54860855 35.41389267 -10.32748413 36.19082642 C-11.37702498 37.24032633 -12.42548569 38.29090746 -13.47290039 39.3425293 C-15.05959946 40.93458966 -16.65157742 42.5212299 -18.24414062 44.10742188 C-23.18162173 49.04201416 -28.00954728 54.02139907 -32.54858398 59.33032227 C-34.58505984 61.67304024 -36.77684056 63.83534476 -39 66 C-42.57293006 69.53520682 -45.97057558 73.13655576 -49.234375 76.95703125 C-51.2129461 79.2463956 -53.26252331 81.46191342 -55.3125 83.6875 C-64.37636043 93.8186068 -71.45707194 103.02676099 -76 116 C-76.23106445 116.65581055 -76.46212891 117.31162109 -76.70019531 117.98730469 C-80.39628451 128.69130036 -83.31948525 139.62992668 -86.25 150.5625 C-86.59144043 151.83480469 -86.93288086 153.10710937 -87.28466797 154.41796875 C-88.92392445 160.61923766 -90.43274549 166.72158631 -91.30371094 173.08203125 C-92.25257071 175.69572071 -93.5424725 176.25430991 -96 177.4375 C-97.65164721 178.0041627 -99.32036794 178.52263089 -101 179 C-102.39412109 179.44279297 -102.39412109 179.44279297 -103.81640625 179.89453125 C-106.20158417 180.63756676 -108.59174375 181.33634692 -111 182 C-110.82984375 181.20980469 -110.6596875 180.41960937 -110.484375 179.60546875 C-110.24203125 178.47753906 -109.9996875 177.34960938 -109.75 176.1875 C-109.47285156 174.90359375 -109.19570312 173.6196875 -108.91015625 172.296875 C-108.28921228 169.39511741 -107.6960747 166.48932422 -107.12109375 163.578125 C-101.73248514 136.57175427 -95.23351404 104.3623419 -77 83 C-85.3393251 83.72113898 -93.44517228 85.41266653 -101.625 87.125 C-103.12221942 87.43512454 -104.61945271 87.74518209 -106.11669922 88.05517578 C-117.77758224 90.48186608 -129.39884947 93.07421186 -140.99853516 95.77783203 C-146.99706476 97.163224 -152.86961996 98.4037785 -159 99 C-155.754258 93.79209659 -151.99719739 89.29462899 -147.8125 84.8125 C-147.20986328 84.10158203 -146.60722656 83.39066406 -145.98632812 82.65820312 C-140.51918675 76.88703006 -135.06963048 75.8416784 -127.42993164 74.79956055 C-120.62240338 73.86331115 -113.92548719 72.39460291 -107.20703125 70.96875 C-105.86885021 70.68655906 -104.53063894 70.40451145 -103.19239807 70.12260437 C-100.4561485 69.54543199 -97.72046562 68.96565862 -94.98510742 68.38427734 C-91.4824069 67.64042372 -87.97759392 66.90705467 -84.47221851 66.17592621 C-81.74374918 65.60495739 -79.01688763 65.02658457 -76.290411 64.44618225 C-74.37608355 64.04058359 -72.46012718 63.64269736 -70.54414368 63.24499512 C-69.37820175 62.99463501 -68.21225983 62.7442749 -67.01098633 62.48632812 C-65.48239738 62.16347839 -65.48239738 62.16347839 -63.92292786 61.83410645 C-57.85647787 60.10294328 -53.92495029 57.30158165 -49.5625 52.8125 C-49.08296875 52.32201172 -48.6034375 51.83152344 -48.109375 51.32617188 C-44.90239905 48.01978831 -41.86183812 44.59754088 -38.875 41.09375 C-35.69237717 37.53982117 -32.25568284 34.23790207 -28.84375 30.90625 C-26.70085919 28.76940614 -24.71348801 26.53794431 -22.7421875 24.2421875 C-18.60503253 19.46333291 -14.12867946 15.05568628 -9.625 10.625 C-8.01074338 9.03616475 -6.39864674 7.44513097 -4.7890625 5.8515625 C-4.08475098 5.15885254 -3.38043945 4.46614258 -2.65478516 3.75244141 C-0.92378526 2.08833587 -0.92378526 2.08833587 0 0 Z " fill="#FEDEB7" transform="translate(187,175)"/>
<path d="M0 0 C0.65226562 0.65355469 1.30453125 1.30710938 1.9765625 1.98046875 C4.29782024 4.30254326 6.6285557 6.61488337 8.9609375 8.92578125 C10.43234884 10.3879633 11.9037016 11.8502043 13.375 13.3125 C14.10460937 14.03373047 14.83421875 14.75496094 15.5859375 15.49804688 C19.65856348 19.55249149 23.52733815 23.7010815 27.27587891 28.05541992 C30.20037212 31.35386065 33.3537531 34.41500176 36.5 37.5 C40.97196882 41.92393009 45.32271604 46.36793881 49.41210938 51.15197754 C49.93611328 51.76182495 50.46011719 52.37167236 51 53 C51.49757813 53.59018921 51.99515625 54.18037842 52.5078125 54.78845215 C56.94625186 59.67348266 60.57174454 61.30153978 67 62.40625 C67.86135056 62.57733276 68.72270111 62.74841553 69.6101532 62.92468262 C72.4026465 63.47430758 75.20057042 63.98700161 78 64.5 C79.93393275 64.87460613 81.86728211 65.25223605 83.80004883 65.6328125 C86.72286684 66.20806038 89.64588359 66.7815105 92.57099915 67.3449707 C102.59071592 69.27842104 112.51992731 71.55802214 122.45507812 73.88085938 C124.18467773 74.28014648 124.18467773 74.28014648 125.94921875 74.6875 C127.00979492 74.93604736 128.07037109 75.18459473 129.16308594 75.44067383 C131.60543248 75.92220704 133.77188423 76.08636791 136.24609375 76.13671875 C142.15581896 77.49577106 145.31280206 81.4926503 149.375 85.8125 C150.18066406 86.63298828 150.98632812 87.45347656 151.81640625 88.29882812 C158.19695887 94.88779075 158.19695887 94.88779075 160 99 C153.59541882 97.95514206 147.23913474 96.70296574 140.875 95.4375 C140.23404388 95.31016479 139.59308777 95.18282959 138.93270874 95.05163574 C125.99302854 92.4725561 113.11524209 89.63175953 100.24755859 86.71655273 C92.52641453 84.97191942 84.80851819 83.31489775 77 82 C77.54197021 82.62253662 78.08394043 83.24507324 78.64233398 83.88647461 C100.52386604 109.39591738 105.73696771 150.05194263 112 182 C108.6411901 181.07439894 105.32292053 180.04636647 102 179 C101.15800049 178.7839209 100.31600098 178.5678418 99.44848633 178.34521484 C96.85350786 177.51261575 95.09807752 176.75087403 93 175 C91.10871092 171.01761072 90.42147507 166.95112828 89.6875 162.625 C89.21039993 160.240471 88.73125515 157.85635013 88.25 155.47265625 C88.0334375 154.33715332 87.816875 153.20165039 87.59375 152.03173828 C86.45773489 146.23114797 84.78752281 140.62599286 83 135 C82.68659668 133.99759277 82.37319336 132.99518555 82.05029297 131.96240234 C80.92530558 128.38602544 79.7779243 124.81746288 78.625 121.25 C78.26172607 120.10023682 77.89845215 118.95047363 77.52416992 117.76586914 C74.2364925 107.76979693 69.697024 99.56147093 62.8125 91.625 C62.34618164 91.08464111 61.87986328 90.54428223 61.39941406 89.98754883 C57.19085298 85.1412202 52.85165908 80.41377227 48.48828125 75.70703125 C46.42555966 73.46297149 44.41881684 71.19040305 42.4375 68.875 C39.03345761 64.94035149 35.35122219 61.31566371 31.625 57.6875 C29.640145 55.65538655 27.79791982 53.61996889 25.95703125 51.46484375 C21.33261627 46.13129334 16.32624236 41.17632586 11.32788086 36.19750977 C9.66987045 34.54492818 8.01736024 32.88697801 6.36523438 31.22851562 C5.31021689 30.17415781 4.25488986 29.12010962 3.19921875 28.06640625 C2.70653 27.57169327 2.21384125 27.07698029 1.70622253 26.567276 C-0.9002738 23.95586542 -0.9002738 23.95586542 -4 22 C-3.3622098 14.47407567 -1.80110167 7.32901118 0 0 Z " fill="#FEDEB7" transform="translate(324,175)"/>
<path d="M0 0 C0.78608643 0.79148438 1.57217285 1.58296875 2.38208008 2.3984375 C17.84568715 17.76542407 38.19112831 21.18572831 59.23046875 21.24023438 C61.46653674 21.24985601 63.70165019 21.28089788 65.9375 21.3125 C83.12709689 21.43856996 101.97402489 18.68876035 116 8 C118.04760226 5.92997873 119.91018144 3.81638379 121.72265625 1.5390625 C122.35494141 0.77722656 122.35494141 0.77722656 123 0 C123.33 0 123.66 0 124 0 C124.02187378 1.28293945 124.02187378 1.28293945 124.04418945 2.59179688 C124.28581411 24.98437349 124.28581411 24.98437349 128 47 C124.52109541 47.48108177 121.04183048 47.95950891 117.5625 48.4375 C116.58861328 48.57220703 115.61472656 48.70691406 114.61132812 48.84570312 C113.64775391 48.97783203 112.68417969 49.10996094 111.69140625 49.24609375 C110.37958374 49.42676392 110.37958374 49.42676392 109.04125977 49.61108398 C108.03764404 49.73942627 107.03402832 49.86776855 106 50 C104.06120972 50.26453979 104.06120972 50.26453979 102.08325195 50.53442383 C95.40105451 51.26162083 88.69049768 51.18506421 81.9765625 51.203125 C80.89762285 51.20736607 80.89762285 51.20736607 79.79688644 51.21169281 C75.97266028 51.22663009 72.14847115 51.23588786 68.32421875 51.24023438 C65.22351022 51.24457542 62.12308681 51.25830258 59.02246094 51.28125 C37.90417015 51.43449905 16.78199584 51.32530074 -4 47 C-3.79503906 46.20464844 -3.59007812 45.40929687 -3.37890625 44.58984375 C-0.10094133 29.92526385 -0.25508235 14.96107291 0 0 Z " fill="#FDD650" transform="translate(194,213)"/>
<path d="M0 0 C0.96486328 0.67095703 0.96486328 0.67095703 1.94921875 1.35546875 C30.2057955 20.26036817 70.93610993 19.36608571 103.26171875 13.22265625 C113.99557471 10.95898542 123.24267932 6.6636352 132 0 C131.54927492 3.50102287 131.08802697 7.00058461 130.625 10.5 C130.49867188 11.48226562 130.37234375 12.46453125 130.2421875 13.4765625 C128.02370965 30.11514636 128.02370965 30.11514636 121.6015625 36.046875 C106.15620948 47.64248538 87.24929702 50.37218038 68.44726562 50.31567383 C66.26641278 50.31252371 64.08693557 50.33603414 61.90625 50.36132812 C41.05854893 50.45540792 22.0189699 46.00871308 6.33203125 31.5390625 C2.63380102 26.93979575 2.43493586 20.97812852 1.6875 15.3125 C1.51927734 14.17232422 1.35105469 13.03214844 1.17773438 11.85742188 C0 3.71903699 0 3.71903699 0 0 Z " fill="#595661" transform="translate(190,185)"/>
<path d="M0 0 C4.1100211 3.62116396 7.85178597 7.28787946 11.09765625 11.71875 C11.09765625 12.37875 11.09765625 13.03875 11.09765625 13.71875 C9.03613236 14.36769237 6.97339367 15.0127764 4.91015625 15.65625 C3.76160156 16.01589844 2.61304688 16.37554687 1.4296875 16.74609375 C0.33011719 17.06707031 -0.76945312 17.38804688 -1.90234375 17.71875 C-2.77503906 17.99332031 -3.64773437 18.26789063 -4.546875 18.55078125 C-7.84986325 18.78631773 -8.93851654 17.60291019 -11.40234375 15.46875 C-12.57410156 14.49615234 -12.57410156 14.49615234 -13.76953125 13.50390625 C-14.47335938 12.91480469 -15.1771875 12.32570313 -15.90234375 11.71875 C-25.19857125 5.29992625 -36.88247906 4.84788024 -47.71484375 6.78125 C-57.93442038 8.80485586 -67.57138132 12.43106358 -76.33984375 18.09375 C-80.85996245 20.95172855 -83.59685019 21.63349027 -88.90234375 20.71875 C-92.19526219 18.60790485 -92.79010327 17.07527858 -93.96484375 13.34375 C-93.89665884 9.38902528 -93.12607954 8.1367235 -90.55444336 5.24414062 C-87.4648444 2.39150071 -83.87807799 0.55562179 -80.15234375 -1.34375 C-79.3212207 -1.77421631 -78.49009766 -2.20468262 -77.63378906 -2.64819336 C-53.01022482 -14.97631649 -22.68803132 -17.83285369 0 0 Z " fill="#6A666D" transform="translate(233.90234375,74.28125)"/>
<path d="M0 0 C2.48494229 2.71512642 2.95759839 3.70848891 3.5 7.4375 C3 11 3 11 0.9375 13.9375 C-2.81259183 16.5705432 -4.4697321 16.46416679 -9 16 C-11.80306474 14.86344737 -14.33969765 13.35346636 -16.9375 11.8125 C-31.10833671 3.89770562 -46.86512963 -1.40559783 -63.23046875 2.140625 C-69.61787512 4.12261287 -76.41003215 6.85651727 -80.9375 11.9375 C-81.618125 12.618125 -82.29875 13.29875 -83 14 C-87.05847984 13.55385505 -90.92693549 12.15419192 -94.8125 10.9375 C-95.97394531 10.57527344 -97.13539063 10.21304688 -98.33203125 9.83984375 C-99.21246094 9.56269531 -100.09289062 9.28554687 -101 9 C-97.78969119 -0.69996534 -88.50607232 -6.89944706 -79.89453125 -11.59765625 C-54.38899252 -23.95459067 -22.38178108 -15.46377602 0 0 Z " fill="#6A666D" transform="translate(369,79)"/>
</svg>
